<?xml version="1.0" encoding="UTF-8" standalone="no"?>
<svg width="1409px" height="767px" viewBox="0 0 1409 767" version="1.1" xmlns="http://www.w3.org/2000/svg" xmlns:xlink="http://www.w3.org/1999/xlink">
    <!-- Generator: Sketch 47.1 (45422) - http://www.bohemiancoding.com/sketch -->
    <title>Shape</title>
    <desc>Created with Sketch.</desc>
    <defs></defs>
    <g id="Home" stroke="none" stroke-width="1" fill="none" fill-rule="evenodd">
        <path d="M728.424174,22.0296875 C729.11907,24.0421981 736.89331,16.0034576 738.392177,16.4973885 C744.57244,18.5340089 749.086512,19.1379188 749.086512,19.1379188 C755.895265,19.1379188 755.20472,7.05834548 760.224706,7.67244581 C769.923425,8.85890049 783.329207,20.5424722 783.407606,21.1532696 C783.809409,24.283679 777.763218,33.400793 776.732246,38.8940968 C775.701274,44.3874007 790.766823,23.9426283 791.584985,24.4758032 C798.873833,29.2257574 805.050224,21.026877 801.059203,29.4485947 C800.243522,31.1698174 805.767338,37.7258003 806.596457,38.8940968 C808.731619,41.902716 812.106448,31.9574266 818.23729,41.0367044 C824.368133,50.1159821 857.379656,57.7751911 848.386235,67.5514369 C847.051473,69.0023832 841.147901,75.972117 836.603351,76.4985265 C831.090713,77.1370725 826.642055,71.5901433 822.782527,77.4409891 C821.971786,78.6700305 827.51396,90.666782 828.818155,92.1630796 C830.12235,93.6593772 830.896519,91.1905563 833.544691,90.2227857 C836.192863,89.2550151 833.775841,83.3333711 835.605399,82.9604069 C838.491205,82.3721216 855.121836,78.3915688 857.548553,82.9604069 C859.689353,86.9909426 862.739007,88.1799713 863.077219,94.812232 C863.211458,97.4446259 856.761441,107.392016 850.351224,110.016878 C844.111104,112.572088 844.252273,116.746716 844.111104,118.562963 C843.96074,120.497514 845.879777,119.565533 848.473914,118.021465 C851.06805,116.477397 851.641411,116.918453 853.813672,116.610025 C862.184629,110.607925 859.677425,111.256292 863.077219,108.160075 C863.607662,107.676996 866.104578,105.690006 867.602194,106.080837 C868.639975,106.351666 868.964583,108.51318 868.785592,110.016878 C868.676578,110.932702 867.554394,112.078879 868.785592,113.427267 C869.725768,114.456933 871.172435,114.440944 872.348635,115.037058 C879.305642,118.562963 887.241796,129.724321 885.504869,135.749328 C884.797478,138.203107 880.666987,143.104583 875.998482,144.618571 C873.311803,145.489856 876.98512,151.326991 874.280064,151.483655 C868.762179,151.803223 866.058887,153.473627 866.070131,153.57693 C866.470538,157.255346 865.909401,160.685919 866.070131,164.38448 C866.111895,165.345512 870.72107,165.925186 874.280064,167.118003 C879.926299,169.01037 885.501199,171.581231 885.504869,173.109013 C885.520337,179.548796 913.674123,178.067387 912.92354,184.495065 C912.749417,185.98618 930.205478,186.056979 935.595924,190.12633 C940.875159,194.111726 950.738882,198.691575 948.94059,201.442112 C946.630484,204.975484 945.648296,208.945105 947.404456,214.40482 C947.878015,215.877066 951.997553,216.996692 956.531852,214.58709 C958.769866,213.397771 955.895636,208.549823 956.531852,204.717367 C956.879929,202.62061 957.128116,200.152454 958.216152,198.97105 C959.168609,197.936859 955.594057,196.816445 962.901583,197.712264 C970.209108,198.608083 973.201489,203.783235 976.012054,204.717367 C977.647264,205.260853 979.381968,206.850896 981.678248,207.473202 C984.858119,208.334967 991.113486,206.55955 995.164035,207.473202 C998.332559,208.187902 1001.84088,208.04328 1005.19968,208.845848 C1011.60599,210.3766 1008.86694,215.280274 1014.87225,216.955358 C1018.06985,217.847278 1022.35144,217.047074 1025.91008,217.608745 C1027.40697,217.845005 1028.07238,221.327292 1029.52686,221.559026 C1031.8857,221.934847 1032.96333,203.489994 1035.12834,203.553021 C1038.31166,203.645693 1048.0994,180.438186 1050.52296,184.495065 C1052.07873,187.09932 1068.27468,173.719581 1067.30106,182.96163 C1066.95122,186.282451 1063.84267,183.673827 1063.84267,189.148254 C1063.84267,194.62268 1070.68677,192.329021 1068.99391,201.442112 C1068.6539,203.272488 1070.42226,205.604029 1070.12505,207.473202 C1069.45367,211.695621 1068.8497,211.277824 1068.99391,219.243642 C1069.03301,221.402994 1077.48212,227.174975 1077.64852,230.851998 C1077.90248,236.463794 1089.39793,245.541478 1089.88546,246.482044 C1090.86557,248.372916 1090.28002,252.448357 1089.19132,253.94403 C1088.86544,254.391727 1082.6417,253.207684 1082.77925,259.930092 C1082.83263,262.539138 1090.71693,259.22764 1090.86488,262.60375 C1090.92275,263.924236 1090.8116,266.750217 1090.86488,268.185702 C1090.98696,271.474516 1090.70641,270.470665 1084.22707,275.09415 C1082.38408,276.409252 1084.81796,284.575296 1081.50941,287.247927 C1078.09985,290.002157 1077.6287,291.413904 1077.64852,292.598576 C1077.669,293.822747 1082.6833,294.675629 1085.85775,294.644944 C1089.30144,294.611656 1090.98156,293.638272 1092.51504,293.638272 C1095.48763,293.638272 1094.09543,295.34689 1099.14432,293.958565 C1101.09701,293.42162 1100.31329,290.301572 1102.85325,289.499572 C1106.88062,288.227918 1114.36054,289.320241 1117.15342,289.499572 C1124.36389,289.962557 1132.83673,295.836013 1142.39897,297.935185 C1149.11038,299.408521 1165.22039,303.593239 1180.65591,309.26353 C1190.35709,312.82729 1199.37963,318.030718 1206.92377,320.224844 C1210.98098,321.404836 1208.80097,323.783803 1212.76855,325.113989 C1216.4338,326.342813 1216.10715,333.74765 1216.97493,331.861046 C1219.41278,326.560972 1221.14753,324.537248 1230.57819,330.483984 C1236.18141,328.667191 1240.09418,329.396265 1243.39306,328.972842 C1244.83889,328.787265 1246.59305,328.50285 1247.91904,327.88378 C1249.24129,327.266454 1250.1358,326.314387 1251.25801,326.186252 C1254.85686,324.764964 1256.77041,326.205304 1257.95319,328.146958 C1258.75932,329.470296 1261.57331,330.82794 1262.8307,330.483984 C1265.93296,329.635361 1266.45851,332.00581 1267.77965,328.972842 C1268.24805,327.897535 1269.14328,322.739582 1270.56504,320.224844 C1272.66339,316.513377 1284.54914,303.639796 1285.68008,306.125498 C1290.9143,305.894497 1291.40235,304.797384 1291.29343,303.943001 C1291.18451,303.088617 1287.19296,297.857912 1291.01772,297.095953 C1292.00277,296.899716 1293.90238,293.688302 1295.3712,292.598576 C1297.70427,290.867653 1299.23553,289.103556 1302.35075,288.332061 C1304.88944,287.703345 1309.17572,287.931437 1310.11674,287.758053 C1314.44092,286.961315 1318.95495,287.921584 1324.04092,287.758053 C1326.68794,287.672942 1332.08059,285.815525 1332.16459,286.373768 C1335.16584,288.240491 1341.00338,288.505513 1342.42967,287.992682 C1345.26779,286.347432 1347.20782,286.857671 1349.0954,287.247927 C1352.4593,289.425688 1356.02952,288.347869 1356.10493,289.499572 C1359.23372,291.939415 1362.28031,292.937264 1362.31266,293.638272 C1362.37184,294.920267 1369.60276,293.188028 1372.81374,294.644944 C1376.02472,296.10186 1380.67995,298.102612 1380.68207,299.901702 C1380.68473,302.163396 1385.0053,302.84968 1386.85875,306.125498 C1393.75991,318.322728 1406.77521,338.081419 1405.50469,348.548959 C1404.83731,354.047381 1409.9473,359.240878 1408.84313,364.931458 C1406.94588,374.709384 1408.57922,374.50483 1405.50469,384.55513 C1403.26549,391.874821 1393.86313,409.836113 1391.0972,417.304359 C1383.39927,438.089383 1366.94148,471.938937 1358.44429,489.698586 C1339.34486,529.617562 1338.91524,542.368923 1332.16459,542.368923 C1327.53228,542.368923 1323.61744,560.420937 1316.69454,561.058566 C1311.7875,561.510525 1297.40499,561.384309 1289.21652,563.835508 C1281.02805,566.286707 1305.11292,539.632903 1298.02542,540.520478 C1297.15797,540.629109 1282.34137,552.730118 1277.64379,558.213226 C1275.22535,561.036072 1274.16567,558.949999 1272.41821,558.213226 C1269.89495,557.149353 1267.39162,564.647812 1266.72497,564.733227 C1264.90493,564.966421 1263.06017,565.205433 1261.19168,565.450063 C1258.64777,565.783124 1253.88733,571.924942 1251.25801,572.278337 C1248.10858,572.701638 1246.65485,571.833319 1243.39306,572.278337 C1234.88073,573.439709 1231.07204,579.650991 1221.88805,580.951666 C1216.0929,581.7724 1209.26955,586.778506 1203.24082,587.630072 C1201.94688,587.812842 1197.4772,585.170425 1196.17378,585.353774 C1186.50145,586.714352 1175.22698,597.207059 1165.15156,598.614919 C1141.67337,601.895574 1116.69468,614.344829 1092.51504,617.25745 C1085.08184,618.152837 1068.9556,627.204624 1061.58227,627.990133 C1048.86443,629.34501 1053.58658,627.130603 1041.48629,627.990133 C1034.72951,628.470093 1030.34866,640.457315 1023.66605,640.838702 C1016.97983,641.220296 1018.33122,640.681659 1011.76008,640.838702 C1006.21699,640.971175 1009.09625,643.993505 1003.88679,644.359554 C1003.65771,644.37565 998.376739,645.731363 998.135352,645.731276 C996.818501,645.730799 992.351403,650.898651 991.036984,650.888124 C988.743723,650.869756 986.422797,657.533954 984.140643,657.486656 C982.672901,657.456237 981.209568,657.413988 979.751199,657.360466 C979.044032,657.334513 972.523878,666.74258 971.819109,666.711389 C969.123728,666.592099 966.466136,666.936791 963.831181,666.711389 C961.133069,666.480584 952.824184,679.01404 950.194857,678.680625 C947.654086,678.358439 943.748442,681.276354 940.521372,683.239291 C937.294303,685.202229 937.591507,688.671104 934.941924,690.805806 C933.578737,691.904091 932.283988,689.38871 930.375552,688.073908 C926.70259,685.54345 923.183645,682.6744 919.039084,678.680625 C917.14849,676.858814 916.235939,674.250564 913.943235,672.383299 C910.891642,669.897967 905.86026,660.951016 903.896078,652.627214 C903.325841,650.210664 897.28452,631.587149 900.519007,629.730801 C902.873708,628.379383 928.828647,630.203286 939.477622,629.730801 C943.456391,629.554267 940.872406,627.211667 940.521372,626.931199 C938.380439,625.220644 938.057256,625.826165 929.611287,625.826165 C924.894182,625.826165 922.662883,617.385442 922.310385,612.223554 C922.031737,608.143091 923.687467,607.078559 920.921278,607.116268 C919.578512,607.134573 913.402087,606.563362 912.92354,604.38951 C911.836209,599.450196 919.507396,591.242925 916.047207,592.299998 C912.066999,593.515935 908.411502,600.118024 903.896078,602.893703 C898.850654,603.961101 899.416423,607.538078 899.148912,607.758699 C898.881402,607.979319 905.90468,607.623407 905.064532,608.195866 C904.330881,608.69576 903.918534,610.885859 903.143766,611.393447 C902.336283,611.922467 901.417495,614.507175 900.519007,614.963059 C900.175178,615.137514 900.383662,614.722793 899.568363,618.725436 C898.753063,622.728079 898.018158,620.277972 896.044399,621.545559 C893.93593,622.899659 891.24386,624.368781 889.689611,626.931199 C888.943053,628.162015 889.594736,634.671424 889.689611,640.346719 C889.765777,644.902814 896.044399,662.745759 889.689611,662.745759 C889.642922,662.745759 883.572951,663.022065 877.852909,662.745759 C872.934237,662.508164 871.342614,657.90276 863.077219,660.32426 C854.811823,662.745759 849.699368,665.250525 849.699974,665.252012 C848.970976,671.038224 851.817776,667.269348 852.653748,672.383299 C853.141784,675.368797 854.250944,678.790181 854.458639,681.986188 C854.803954,687.299912 853.730494,691.590682 852.653748,692.298257 C851.884634,692.803674 852.562156,690.314598 851.602765,687.17091 C850.475786,683.478082 848.14786,688.292582 845.68129,692.298257 C845.164797,693.137036 848.878342,695.528665 848.473914,696.546763 C847.63065,698.669575 844.799627,699.696985 844.111104,702.094653 C843.447367,704.406007 843.891792,707.627678 846.795883,707.409482 C849.699974,707.191286 854.458639,696.846162 854.458639,700.158466 C854.458639,701.468843 861.225174,699.42923 867.602194,695.947124 C871.436471,693.853456 874.237504,690.639976 877.852909,689.002916 C879.364908,688.31828 882.261432,676.2604 883.408058,675.863047 C884.783094,675.386541 892.510392,676.929785 897.579534,679.260176 C903.857969,682.146505 909.827108,685.598576 909.383077,686.014204 C908.082178,687.231888 929.280464,700.179192 917.660344,704.554519 C914.778733,705.639532 913.766847,709.766819 909.383077,713.722572 C900.858766,721.414597 891.56648,732.317214 881.970161,732.917535 C877.030557,733.226543 873.402064,731.317224 870.755561,730.595881 C868.348797,729.939882 866.070131,727.193799 861.994303,728.35254 C860.168491,728.871611 862.781763,726.133484 857.548553,721.839591 C853.917207,718.86004 848.875918,714.663193 844.713317,714.663193 C842.84349,714.663193 842.526721,716.280662 841.55052,719.614409 C840.859748,721.973412 845.049933,726.763971 844.111104,725.700403 C843.911777,725.474593 844.075042,732.612125 844.111104,739.820199 C844.13214,744.024932 843.851,749.582654 844.111104,750.217066 C844.433057,751.002334 845.532787,754.687356 844.713317,756.235414 C844.062361,757.465132 841.465511,756.454923 841.55052,757.934183 C841.664764,759.92215 843.971499,761.20751 844.713317,762.760883 C845.541343,764.494777 844.775552,766.373392 844.111104,766.067969 C841.356929,764.801976 834.776852,757.185184 829.788846,750.217066 C828.167475,747.95205 827.822549,745.406112 826.376718,743.627987 C823.86328,740.536887 818.23729,748.088832 818.23729,750.217066 C818.23729,751.044769 820.118188,752.758645 821.137281,754.224886 C821.808148,755.190109 823.742836,757.417781 823.694268,758.474346 C819.069394,758.898942 818.078578,756.110789 817.093181,755.313363 C816.045593,754.46561 814.132697,754.103022 813.58015,753.076 C812.910842,751.831953 813.678067,749.882138 813.186895,748.382706 C812.785719,747.158009 807.026488,743.627987 803.761749,741.388305 C800.497011,739.148623 780.960168,741.945404 780.365196,740.310046 C780.100961,739.58376 779.365656,737.139882 780.365196,736.469003 C780.870704,736.129713 794.546041,736.765466 800.015771,736.469003 C801.248121,736.402209 805.519767,729.340402 800.015771,728.846471 C794.511775,728.35254 778.019831,727.344487 772.368273,728.35254 C769.390535,728.883671 780.504373,743.627987 768.812746,743.627987 C757.121119,743.627987 749.70277,766.453754 746.80728,753.076 C746.178736,750.171994 731.579666,759.935524 731.262916,756.235414 C730.820485,751.067157 732.098497,748.91537 725.683318,750.217066 C721.458034,751.074413 722.228168,753.755202 719.582716,753.076 C718.835537,752.884166 715.747465,753.560093 713.38617,752.254568 C711.414428,751.164422 710.108641,748.085143 709.590824,747.708358 C708.688397,747.051715 708.049589,745.226794 706.912506,744.772854 C704.017354,743.617069 700.95397,743.660883 699.473539,743.627987 C696.942364,743.571744 694.768605,742.206582 693.241638,744.772854 C692.696588,745.688885 692.968965,747.930977 691.882155,747.708358 C691.01821,747.531389 688.492968,748.250417 687.511135,747.256715 C686.267905,745.998455 686.578555,743.627987 685.614165,743.627987 C678.441009,743.627987 678.25839,765.381647 672.835185,755.313363 C672.494275,754.680456 670.702337,752.784376 669.071332,750.91734 C667.820911,749.485965 668.64848,749.197651 668.31361,748.382706 C667.306084,745.930777 666.619241,748.533514 663.842593,747.256715 C661.43498,746.149611 655.306693,742.527944 654.377209,739.820199 C653.33161,736.774189 649.253722,739.821721 648.260989,736.469003 C647.375723,733.479224 644.978071,730.144432 644.16028,726.918281 C643.839212,725.651681 639.84829,728.935151 639.541003,727.640448 C639.163833,726.051301 639.891869,722.753471 639.541003,721.114977 C639.104827,719.078098 634.779745,721.839591 633.685775,721.839591 C632.591805,721.839591 633.965287,725.327428 632.50314,725.700403 C631.557311,725.941672 629.953039,724.74054 628.640927,723.937661 C626.852943,722.214274 623.738488,719.351268 623.626306,718.467956 C619.38196,718.308546 618.343354,720.991002 617.635015,721.310388 C616.138495,721.985161 614.606618,717.521859 613.583135,716.877094 C604.117729,711.807894 589.957155,705.394185 583.783896,700.158466 C580.176804,697.099187 594.228623,689.994608 590.606089,687.17091 C571.634996,672.383299 553.928094,662.745759 548.706906,665.252012 C547.938399,665.620908 534.010035,650.43216 523.530579,640.346719 C520.673209,637.596783 514.546527,629.980463 513.119551,628.759454 C506.414023,623.021788 495.418291,609.694121 496.204992,604.38951 C496.717037,600.936859 496.152672,598.355099 492.692276,593.486548 C490.219285,590.007211 483.757047,586.404131 480.285365,582.770604 C478.899208,581.319825 469.652608,582.770604 466.167966,580.951666 C463.240376,579.423502 456.668165,588.932448 460.191732,592.299998 C461.491847,593.542548 470.865005,588.826995 472.71387,589.744521 C479.235392,592.980922 478.234637,592.761482 480.285365,596.716046 C482.336094,600.670611 484.515475,601.984679 487.592931,607.116268 C491.400619,613.465503 493.155202,621.004177 494.548534,624.568217 C497.067987,631.012791 494.268478,629.705595 491.505939,629.730801 C489.923627,629.745239 488.663715,628.805445 486.942046,628.759454 C481.923511,628.625393 473.761185,632.054385 467.70835,631.44996 C465.204485,631.199929 457.278132,629.615849 454.307493,625.826165 C452.552188,623.586901 454.538957,619.873667 454.307493,617.839321 C454.187417,616.783972 450.318048,615.087031 449.471243,614.963059 C443.63365,614.108437 446.355601,622.569296 440.08636,621.545559 C437.726239,621.160162 437.735779,622.912542 435.311865,622.486498 C432.84102,622.052205 430.681994,620.195254 428.149027,619.716049 C426.720656,619.445819 419.385451,622.990318 418.765121,617.25745 C418.659854,616.284613 410.39398,617.574991 410.31666,616.464181 C410.200695,614.79818 399.751472,614.998379 399.720613,613.039672 C399.699146,611.677102 398.935704,606.601075 398.967609,605.107517 C398.986024,604.245456 402.102461,605.331325 405.194643,606.147721 C408.21068,606.944014 410.264205,603.043895 410.31666,602.129704 C410.508951,598.77842 410.31666,596.716046 406.198271,595.998981 C403.06333,595.453147 398.966211,597.540989 396.266136,598.614919 C393.566061,599.688849 391.891862,588.300594 393.046075,582.09906 C394.330978,575.195336 407.242564,555.390228 419.288818,535.622268 C422.496166,530.358995 414.910086,519.527427 416.034232,513.61834 C416.132454,513.102035 410.806951,517.654243 411.13413,514.055825 C411.46131,510.457407 401.208719,514.326373 400.194776,511.955764 C399.180832,509.585156 402.56438,501.576939 404.478264,500.669022 C407.013058,499.466555 413.047619,507.011658 417.088742,508.717694 C417.699366,508.97548 418.788174,506.398903 419.288818,506.339731 C420.568161,506.188522 419.417993,500.76364 419.288818,498.415254 C419.17191,496.289879 407.166313,475.848524 407.082134,473.304266 C407.051465,472.377315 405.476633,470.993374 405.194643,468.739514 C404.912653,466.485655 404.478264,463.116492 404.478264,462.542475 C404.478264,461.273128 403.080258,459.491689 395.220595,463.713064 C387.360933,467.934438 389.526334,456.245598 379.738355,458.359588 C376.603043,459.036747 370.875467,462.669306 372.887248,470.11755 C374.89903,477.565794 383.991578,468.340902 386.452419,473.304266 C388.913259,478.267629 393.440366,476.607447 389.575469,481.194736 C388.86194,482.041632 392.67135,487.648384 393.046075,488.807581 C393.777587,491.070488 397.500257,493.413238 398.407993,494.983316 C399.448818,496.783594 397.504156,502.91737 395.220595,504.874877 C391.868023,507.748757 394.576676,513.189408 397.340175,518.686267 C400.432401,524.836992 408.692232,511.474794 411.13413,524.035703 C412.247631,529.763455 405.99198,538.449958 403.274993,544.511516 C400.03365,551.7429 397.340175,549.448557 393.046075,558.213226 C391.000176,562.389102 386.699168,571.417883 381.6468,580.951666 C380.278606,583.533438 383.127835,589.736916 381.6468,592.299998 C380.064733,595.037925 376.40414,599.543886 375.133781,602.129704 C374.317272,603.791709 386.452419,599.087347 386.452419,604.38951 C386.452419,606.001597 392.922075,615.38333 389.575469,614.963059 C381.915066,614.001054 365.708453,603.890619 360.517835,596.716046 C358.432937,593.83426 355.586173,592.32691 353.046594,590.279204 C350.771663,588.444889 343.748341,593.822432 342.734855,589.744521 C341.605796,585.201584 337.409597,587.161351 328.760969,589.744521 C325.579466,590.694772 323.517858,589.184345 321.940194,589.744521 C319.22912,590.707134 323.687099,598.522134 320.912702,598.614919 C319.007466,598.678636 318.238274,605.67623 318.089804,610.260158 C317.977227,613.735918 309.077139,611.090266 302.637863,612.223554 C296.198588,613.356843 304.267516,606.123632 299.37287,603.863826 C294.478223,601.60402 292.063799,603.26058 289.073066,599.628056 C286.263844,596.215993 286.24665,589.086193 283.354687,587.630072 C278.977161,585.42596 271.64365,589.744521 269.698305,589.744521 C268.41891,589.744521 266.946303,607.38501 266.59021,614.963059 C266.404856,618.907573 252.315729,618.725436 237.152741,621.545559 C227.376573,623.363801 231.791277,601.782317 229.487882,586.574907 C229.233392,584.894716 226.390536,580.099287 223.944197,580.951666 C221.355298,581.853717 219.723594,589.626651 219.022536,588.819522 C217.781557,587.390782 219.097667,594.264865 220.878872,605.107517 C221.882634,611.21767 224.704022,622.707511 223.198805,624.568217 C219.022536,629.730801 215.424138,632.782898 212.768521,631.44996 C206.709919,628.408955 201.267302,622.312054 194.763554,611.393447 C192.122948,606.960349 195.86501,599.26652 193.58768,594.198936 C192.308361,591.352157 180.541069,592.299998 176.146301,596.716046 C173.730441,599.143606 176.105598,602.966849 176.146301,607.116268 C176.179643,610.515187 177.309985,619.65576 181.722915,624.568217 C183.485417,626.530228 194.203214,633.851679 194.763554,636.761413 C195.515943,640.668419 187.860318,639.225352 185.679427,642.631169 C184.889257,643.865149 185.566511,645.63552 184.776209,646.890302 C183.248752,649.315487 178.022046,650.976932 176.146301,652.627214 C173.483908,654.969589 170.612522,658.704713 168.434698,657.360466 C168.153666,657.187001 166.201199,657.438866 165.371342,654.986757 C164.0024,650.941731 166.07188,645.095218 165.371342,644.359554 C162.623876,641.474326 146.443674,640.742057 143.612844,636.761413 C141.9385,634.406991 141.212743,632.398362 139.688064,629.730801 C139.212215,628.898261 131.475745,634.377772 131.013457,633.520045 C129.869057,631.396732 134.935334,626.88162 133.927438,624.568217 C132.5102,621.31526 124.893466,618.432158 123.58416,614.963059 C122.969746,613.335125 115.554315,621.374817 114.997785,619.716049 C114.233264,617.437353 110.96185,614.648246 110.375662,612.223554 C109.380243,608.106135 137.759288,585.26308 137.260908,580.951666 C136.973427,578.464706 136.275596,576.388 132.5343,574.759796 C128.923977,573.188592 110.124033,599.460597 107.49033,597.85061 C103.556921,595.446111 97.8320608,592.213966 96.8454072,587.630072 C95.3052235,580.474531 115.272549,569.605649 117.459411,561.863508 C118.071111,559.697905 109.886577,555.431823 108.839104,553.699058 C105.590733,548.325496 85.9230791,575.690222 84.9136543,574.759796 C74.8134711,565.450063 58.5197915,551.225679 51.4909991,544.511516 C50.789727,543.841634 37.9791552,559.343514 37.7529638,558.213226 C37.0441003,554.671005 59.3342035,583.440108 63.8073516,588.819522 C68.2804996,594.198936 57.9188397,606.553478 46.4218975,627.990133 C45.4403921,629.820201 79.5397201,642.228922 95.4157848,652.627214 C99.333283,655.193044 98.2802436,658.299604 99.8019172,660.32426 C107.49033,670.554041 43.3187781,676.464086 26.7563616,662.745759 C20.4069388,657.486656 1.91623257,649.125756 0.317201592,640.838702 C-4.36439926,616.576082 44.3245068,502.95123 44.3226451,502.923838 C44.0372363,498.724484 53.7227122,452.998448 80.5660939,404.944997 C88.7016096,390.381273 108.292365,351.450425 116.734472,350.087601 C118.35973,349.825232 120.8158,354.667731 122.092863,353.532872 C125.008948,350.9415 129.122011,338.950852 133.927438,330.483984 C136.276031,326.345906 137.283555,321.757217 139.688064,317.489381 C140.239717,316.510236 139.132014,313.498661 139.688064,312.527007 C140.831705,310.528587 146.340829,307.997153 147.526344,306.125498 C154.868219,294.534369 158.098648,286.109917 158.628352,281.439392 C158.908454,278.969664 156.442015,272.059242 156.862533,269.817513 C157.37021,267.111147 159.272166,265.62737 160.01487,263.29002 C160.615099,261.401053 158.402814,257.207067 159.115209,255.500115 C160.218783,252.855869 161.518664,250.46819 162.963683,248.252403 C163.957644,246.728267 159.714632,238.94898 160.829281,237.559946 C162.650382,235.290556 165.933769,233.890461 168.434698,232.132135 C169.472195,231.402702 168.987627,225.094236 170.054633,224.454603 C171.630042,223.510199 175.383383,230.002497 177.083804,229.555289 C179.295186,228.9737 180.503002,223.343892 182.291033,221.559026 C183.808206,220.04454 189.334323,223.584804 190.825732,222.677635 C192.275379,221.795867 191.363147,217.707893 192.493477,215.636685 C192.821349,215.035895 188.373768,209.481258 188.684158,208.845848 C189.929644,206.296168 196.79036,208.306335 198.008987,205.48744 C198.849777,203.542549 192.871397,199.857452 193.58768,197.712264 C194.408128,195.255112 196.997887,192.686293 198.008987,190.12633 C198.357888,189.242963 197.650322,187.184637 198.008987,186.295569 C198.807181,184.316992 203.861338,184.89903 204.758478,182.96163 C205.72337,180.877913 196.354677,189.587811 199.844494,176.986145 C200.908388,173.144443 201.041249,167.285253 203.131032,164.38448 C204.352035,162.689638 207.595602,165.5892 209.153918,164.38448 C211.319171,162.710542 210.917346,157.461343 212.768521,155.172051 C214.784525,152.67892 219.031953,153.14701 220.878872,151.483655 C226.492465,146.427993 232.115638,143.686954 241.904038,144.618571 C245.413032,144.952541 246.5169,137.076179 250.50273,135.749328 C254.844775,134.303896 264.855498,138.009345 269.698305,135.749328 C290.239062,126.163472 307.315367,105.375639 308.553445,99.822118 C309.064626,97.5291645 331.811264,71.5368116 367.24634,71.5368116 C386.452419,71.5368116 357.009053,83.9298146 360.517835,90.2227857 C362.758234,94.2409228 374.706445,91.9034312 379.738355,94.812232 C380.604988,95.3132072 378.260867,86.7871796 379.738355,83.9261301 C380.892625,81.6909709 395.743159,76.9656325 396.266136,77.4409891 C397.87725,78.9054009 386.208028,95.0326725 385.79555,99.029244 C384.801554,108.660245 394.062571,102.777334 395.220595,103.422976 C396.266567,104.006145 403.761886,82.6511487 404.478264,79.5748376 C405.194643,76.4985265 417.805735,94.2659653 421.018163,95.8371644 C422.991988,96.8025627 428.018249,97.1337383 429.207226,99.822118 C429.992209,101.59703 422.265281,117.253964 422.687866,119.603455 C423.486142,124.041714 430.656505,128.893576 431.303262,133.188417 C432.593313,141.755101 434.44176,152.541058 433.07653,158.064795 C432.370219,160.922538 444.137755,156.569535 444.179399,158.064795 C444.72995,177.832707 390.10383,204.783061 385.79555,207.473202 C363.285207,221.528926 353.691657,196.078337 351.069006,197.712264 C336.426506,206.834624 329.866938,209.154501 332.173574,221.559026 C334.421091,233.645626 346.356072,205.383244 351.069006,207.473202 C353.272162,208.450195 353.4133,216.22278 351.069006,223.395929 C349.949608,226.8211 376.631444,217.461752 375.133781,220.372664 C374.266921,222.057524 382.904467,221.190191 383.967828,226.094359 C384.630959,229.152686 386.856392,234.341444 385.79555,238.183007 C384.484922,242.929108 379.738355,246.104949 379.738355,246.482044 C379.738355,247.811046 380.723601,252.390512 378.32114,255.922766 C376.540069,258.541413 371.753549,259.87592 369.326834,262.60375 C366.83658,265.403003 383.743327,265.606713 381.6468,268.185702 C378.934604,271.522039 360.398627,283.090951 360.517835,283.416293 C361.89215,287.167063 367.096071,287.416936 369.326834,291.181716 C370.889806,293.819489 384.461215,280.432309 393.152996,273.796462 C395.010662,272.378204 392.937783,263.424901 393.152996,255.922766 C393.346333,249.183211 395.891324,243.71683 396.266136,244.214481 C398.328941,246.953335 403.283924,246.039792 405.194643,249.766995 C408.092764,255.420307 411.612638,263.377125 413.910825,271.446057 C415.364603,276.550269 415.693108,287.894285 417.088742,292.598576 C422.120615,309.559621 425.430026,288.842336 428.323587,263.780756 C428.513876,262.132638 418.578057,255.620244 418.765121,253.94403 C418.871492,252.990875 422.58235,245.171912 422.687866,244.214481 C422.977355,241.587728 398.527661,235.609638 401.861152,230.851998 C405.194643,226.094359 398.064495,221.8213 399.720613,220.372664 C402.39992,218.029027 420.397764,199.485926 425.282449,198.97105 C435.48684,197.895443 462.775963,155.777811 464.108047,153.57693 C464.230876,153.37399 466.689637,148.772773 464.108047,140.950901 C461.948507,134.407785 455.193604,126.662495 452.311188,120.415105 C449.718244,114.79512 455.305736,111.37268 455.864481,111.05915 C464.153939,116.108505 470.105129,119.786204 473.718052,122.092249 C476.001087,123.549457 479.155212,120.09519 482.529924,120.415105 C483.586559,120.515272 485.503324,122.174341 486.942046,122.092249 C487.610887,122.054086 488.899251,118.166119 489.822785,118.021465 C492.312124,117.631558 509.109601,111.05915 515.418823,115.037058 C519.624971,117.688996 523.553941,118.213318 527.205732,116.610025 C526.364311,116.237978 528.644973,102.053801 536.844449,97.7250885 C538.006855,97.1114251 541.153682,102.317217 542.462176,101.657632 C544.18445,100.78947 545.782654,87.9311172 547.733486,86.9754226 C562.703701,79.6416544 631.532928,21.394776 654.377209,12.6264434 C665.795407,8.24379084 674.672547,-1.32145312 681.769056,1.27174156 C685.333442,2.57423383 721.471065,-0.953298944 724.69904,0.257206392 C726.220752,0.827855388 732.595259,1.5344786 736.569285,3.13380173 C740.725615,4.80649211 744.025271,7.67244581 741.114362,7.67244581 C724.77891,7.67244581 727.269794,26.4162278 728.424174,22.0296875 Z" id="Shape" fill="#93C563" fill-rule="nonzero"></path>
    </g>
</svg>